<?xml version="1.0" standalone="no"?>
<!DOCTYPE svg PUBLIC "-//W3C//DTD SVG 20010904//EN"
 "http://www.w3.org/TR/2001/REC-SVG-20010904/DTD/svg10.dtd">
<svg version="1.0" xmlns="http://www.w3.org/2000/svg"
 width="1230.000000pt" height="461.000000pt" viewBox="0 0 1230.000000 461.000000"
 preserveAspectRatio="xMidYMid meet">

<g transform="translate(0.000000,461.000000) scale(0.100000,-0.100000)"
fill="#000000" stroke="none">
<path fill="#187516" d="M7306 4031 c-3 -5 -132 -370 -287 -812 -154 -442 -285 -809 -290
-815 -5 -6 -43 -14 -84 -16 -42 -3 -77 -7 -80 -10 -6 -6 35 -150 47 -165 6 -7
19 -13 29 -13 42 0 13 -33 -41 -47 l-35 -9 -6 -130 -5 -129 -129 -360 c-70
-198 -130 -368 -132 -377 -4 -13 7 -20 53 -34 33 -9 64 -19 70 -21 6 -2 39 40
74 93 36 53 65 92 67 88 1 -5 -12 -89 -31 -187 -23 -126 -30 -180 -22 -186 34
-26 309 -172 314 -166 4 3 95 270 203 593 l195 586 333 55 c193 31 336 50 341
45 4 -5 79 -245 165 -534 86 -289 159 -528 161 -532 4 -6 153 47 166 60 4 4
-10 66 -32 137 -22 72 -39 133 -37 138 1 4 40 -56 86 -133 46 -77 87 -139 90
-138 161 81 221 115 221 127 0 7 -79 282 -175 610 l-176 596 26 20 c23 19 25
28 25 94 l0 72 -51 -3 -51 -3 -204 700 c-112 384 -209 704 -214 709 -8 8 -192
48 -196 43 -1 -1 -23 -69 -49 -152 -46 -146 -65 -190 -65 -149 0 54 -23 290
-30 297 -6 7 -214 67 -232 67 -4 0 -9 -4 -12 -9z m375 -1286 c53 -180 73 -262
65 -266 -15 -8 -337 -32 -343 -25 -5 4 172 547 185 571 7 11 1 30 93 -280z"/>
<path fill="#187516" d="M9268 4013 c-35 -4 -37 -6 -43 -46 -8 -62 -35 -300 -35 -317 -1 -41
-19 25 -36 132 -9 65 -20 122 -23 127 -4 5 -60 2 -133 -7 l-128 -16 0 -41 c-1
-105 123 -2663 130 -2681 6 -15 26 -26 70 -38 34 -10 64 -15 67 -13 2 3 22 83
44 178 22 96 42 176 45 178 2 2 4 -68 4 -157 0 -89 2 -162 4 -162 3 0 62 28
131 62 l127 62 -6 571 c-4 313 -9 607 -12 653 -3 45 -2 82 3 82 5 0 97 -208
205 -462 l197 -463 92 -3 c105 -3 108 -1 109 68 1 25 4 63 9 85 l7 40 16 -70
c9 -38 22 -96 29 -129 l13 -59 80 7 c45 4 84 10 88 14 3 4 84 201 180 437 99
247 174 421 176 408 2 -12 -18 -326 -43 -698 -26 -372 -44 -682 -42 -688 6
-15 154 -70 170 -64 7 3 41 93 75 201 35 108 65 196 68 196 3 0 2 -63 -2 -140
-4 -77 -5 -140 -3 -140 2 0 69 -7 149 -15 80 -8 148 -11 151 -7 5 6 141 2724
139 2787 0 18 -21 26 -171 63 -95 23 -174 41 -176 38 -3 -2 -22 -86 -43 -186
-22 -100 -41 -187 -44 -194 -5 -12 -6 -2 -15 164 l-6 115 -34 -3 c-74 -8 -55
32 -415 -846 -187 -454 -343 -823 -346 -819 -4 5 -148 412 -320 906 l-313 897
-76 -2 c-42 -1 -93 -3 -113 -5z"/>
<path fill="#E3DA0C" d="M3543 3679 c-92 -83 -169 -157 -171 -163 -1 -6 182 -217 408 -468
225 -252 410 -461 410 -465 0 -4 -221 -228 -490 -498 l-490 -490 166 -165 165
-165 480 485 c380 385 482 483 493 475 9 -5 263 -287 567 -625 303 -338 563
-628 579 -644 l27 -28 169 152 c93 84 173 156 178 161 11 9 -79 119 -98 119
-6 0 -32 -20 -56 -45 -48 -49 -83 -56 -88 -19 -2 14 12 33 48 63 27 23 50 48
50 55 0 14 -51 66 -65 66 -4 0 -30 -20 -56 -45 -26 -25 -52 -45 -57 -45 -5 0
-17 9 -26 19 -16 18 -15 21 38 67 31 26 56 53 56 58 0 6 -14 26 -31 44 l-30
32 -60 -51 c-58 -51 -59 -52 -79 -34 -21 19 -20 19 36 76 l57 58 -27 35 c-15
20 -31 36 -35 36 -4 0 -34 -23 -65 -50 -46 -41 -61 -48 -72 -39 -25 20 -15 43
36 87 28 24 50 49 50 56 0 14 -51 66 -66 66 -5 0 -49 -36 -98 -80 -49 -44 -94
-80 -101 -80 -7 0 -18 7 -25 15 -13 16 -5 25 123 138 31 27 57 55 57 61 0 5
-14 25 -32 43 l-31 32 -59 -51 c-59 -51 -59 -51 -79 -31 -20 19 -20 20 36 72
30 29 55 55 55 60 0 4 -15 21 -33 39 l-33 32 -58 -51 -58 -52 -21 22 -22 22
59 53 60 53 -28 36 c-16 20 -33 37 -39 37 -5 0 -32 -20 -58 -45 -52 -49 -69
-54 -90 -29 -12 15 -7 23 45 69 63 57 64 65 14 112 l-24 23 -56 -50 c-62 -55
-73 -59 -88 -31 -9 17 -2 27 45 68 30 26 55 53 55 59 0 5 -15 25 -33 42 l-34
33 -94 -85 c-52 -47 -99 -85 -104 -86 -6 0 -16 9 -22 20 -11 17 -7 25 39 67
29 26 73 67 98 90 l45 42 -23 23 c-12 14 -22 31 -22 39 0 8 108 122 240 254
l240 240 -162 162 -163 163 -237 -237 c-233 -233 -237 -237 -257 -219 -20 18
-21 17 -78 -33 l-57 -51 -21 20 -20 21 60 53 59 53 -29 36 c-17 20 -35 36 -40
36 -6 1 -53 -37 -105 -84 l-95 -84 -20 20 -20 20 97 91 98 90 -26 34 c-15 19
-32 34 -39 34 -7 0 -36 -21 -64 -46 -51 -46 -75 -51 -87 -20 -4 10 15 34 52
69 l57 53 -35 39 -35 38 -57 -52 c-59 -54 -72 -58 -90 -27 -9 15 -2 26 49 72
l60 54 -37 37 -37 36 -54 -46 c-61 -52 -68 -54 -87 -31 -11 13 -5 23 43 72
l56 57 -29 33 c-17 17 -35 32 -41 32 -7 0 -34 -21 -61 -46 -50 -46 -64 -50
-82 -22 -8 13 2 27 47 68 l57 52 -26 34 c-15 19 -31 34 -36 34 -6 0 -52 -39
-104 -86 -92 -85 -95 -86 -114 -69 -11 10 -20 21 -20 24 0 3 43 44 95 90 52
46 95 88 95 92 0 12 -70 89 -81 89 -4 0 -84 -68 -176 -151z"/>
<path fill="#FF7272" d="M5270 3655 l-165 -165 160 -160 c88 -88 164 -159 170 -159 5 1 81 75
167 163 l158 161 -163 163 -162 162 -165 -165z"/>
<path fill="#187516" d="M1715 2880 c-194 -30 -358 -118 -502 -268 -144 -149 -233 -330 -284
-577 -28 -131 -30 -376 -5 -515 64 -353 251 -625 496 -723 102 -40 183 -50
364 -44 128 4 181 10 258 30 114 30 237 81 304 128 194 132 330 354 360 585
l6 51 -70 22 c-119 36 -104 45 -205 -122 -49 -82 -91 -147 -93 -145 -2 2 12
71 32 153 19 82 32 155 30 161 -2 6 -51 17 -108 24 -56 7 -107 13 -112 14 -4
0 -21 -34 -36 -76 -64 -176 -190 -288 -323 -288 -32 0 -70 6 -86 14 -73 38
-144 156 -181 300 -25 98 -25 116 -2 116 86 -1 1149 85 1154 94 21 31 -2 306
-37 442 -15 59 -47 145 -81 213 -48 99 -67 125 -137 196 -69 68 -99 89 -187
133 -58 28 -134 59 -170 67 -78 19 -302 28 -385 15z m168 -584 c61 -26 106
-91 121 -178 l7 -38 -226 0 c-258 0 -245 -6 -193 92 34 64 85 113 133 127 46
14 122 12 158 -3z"/>
<path fill="#F5D19B" d="M3078 1273 c-36 -109 -64 -200 -63 -201 5 -5 378 119 390 130 6 5
-41 59 -120 138 -71 72 -132 130 -135 130 -3 0 -35 -89 -72 -197z"/>
</g>
</svg>
